Coordinates
version=1
nRows=19
nColumns=24
inDegrees=yes

Units are S.I. units (second, meters, Newtons, ...)
Angles are in degrees.

endheader
time	pelvis_tilt	pelvis_list	pelvis_rotation	pelvis_tx	pelvis_ty	pelvis_tz	hip_flexion_r	hip_adduction_r	hip_rotation_r	knee_angle_r	ankle_angle_r	subtalar_angle_r	mtp_angle_r	hip_flexion_l	hip_adduction_l	hip_rotation_l	knee_angle_l	ankle_angle_l	subtalar_angle_l	mtp_angle_l	lumbar_extension	lumbar_bending	lumbar_rotation
     24.54500000	     -7.24723120	     -4.55800158	      1.08463165	     -1.49099832	      0.00136358	     -0.28157050	     10.34629904	      9.90263443	      5.36578324	    -12.31131606	      1.24554064	     -2.14147883	     14.00303466	     26.81625680	     -7.71930508	     -1.17331057	    -64.04074184	    -12.83327993	     -5.49051431	     24.00074977	      7.08567689	      4.64839286	      2.81509127
     24.55000000	     -7.26957938	     -4.33290596	      0.81923375	     -1.48634406	      0.00180009	     -0.28091570	      9.83929651	      9.71827429	      5.61445537	    -11.95590848	      1.40528883	     -1.96586855	     13.96761212	     27.38946750	     -7.48501339	     -1.43257274	    -63.50347256	    -12.30550941	     -5.38907884	     24.17024897	      7.01910676	      4.46358636	      3.21491234
     24.55500000	     -7.28043348	     -4.12690882	      0.54598773	     -1.48170707	      0.00219249	     -0.28027290	      9.32146430	      9.54882176	      5.84591709	    -11.59382079	      1.56448589	     -1.77344315	     13.94700098	     27.93275210	     -7.27715847	     -1.69388313	    -62.90281209	    -11.78655132	     -5.27688931	     24.34389702	      6.93774964	      4.30335438	      3.62309893
     24.56000000	     -7.29172471	     -3.93208312	      0.29801882	     -1.47707593	      0.00253245	     -0.27968891	      8.80334400	      9.38007881	      6.04801016	    -11.22071845	      1.71579473	     -1.59419518	     13.93986834	     28.46442127	     -7.06439273	     -1.92143456	    -62.23823016	    -11.29138486	     -5.16609291	     24.50736475	      6.86078281	      4.15316743	      3.99715367
     24.56500000	     -7.26340972	     -3.76389089	      0.02579091	     -1.47247225	      0.00285680	     -0.27910783	      8.24654708	      9.23789620	      6.25790322	    -10.85026272	      1.85673151	     -1.39202987	     13.92637847	     28.92888077	     -6.89450786	     -2.16572529	    -61.50943203	    -10.79550757	     -5.05312258	     24.67465758	      6.72913817	      4.03960986	      4.40036581
     24.57000000	     -7.29262620	     -3.58656690	     -0.16733346	     -1.46784149	      0.00305511	     -0.27863931	      7.74767527	      9.07002500	      6.40847740	    -10.46034396	      2.00438317	     -1.27909959	     13.93319855	     29.45776557	     -6.66329257	     -2.32039872	    -60.72634685	    -10.35846134	     -4.94251619	     24.80091583	      6.67728424	      3.90036093	      4.69706938
     24.57500000	     -7.29034998	     -3.42936510	     -0.40304207	     -1.46321702	      0.00323157	     -0.27815829	      7.22098405	      8.92576619	      6.59368365	    -10.08399768	      2.14361309	     -1.14990212	     13.94775083	     29.91813833	     -6.47867485	     -2.51009965	    -59.87645136	     -9.90592617	     -4.80513734	     24.92984411	      6.58445743	      3.79646190	      5.04782830
     24.58000000	     -7.28297858	     -3.28584822	     -0.62491885	     -1.45860128	      0.00335416	     -0.27771823	      6.69245607	      8.79135224	      6.77398631	     -9.70944381	      2.27206473	     -1.05847458	     13.95219739	     30.35615179	     -6.29706223	     -2.67222079	    -58.96738810	     -9.47709909	     -4.67492731	     25.02767815	      6.48475527	      3.70514329	      5.37462927
     24.58500000	     -7.22605987	     -3.16202212	     -0.86778513	     -1.45401489	      0.00347994	     -0.27727023	      6.11564414	      8.67866107	      7.00088559	     -9.34483417	      2.37044757	     -0.99867462	     13.92235290	     30.71166181	     -6.14667529	     -2.83981626	    -57.99446585	     -9.04608474	     -4.53868398	     25.08178708	      6.31836731	      3.63712919	      5.74168400
     24.59000000	     -7.26900195	     -3.03366089	     -1.03751397	     -1.44936899	      0.00343263	     -0.27692273	      5.65117019	      8.55112624	      7.14393771	     -8.98398760	      2.50186176	     -0.98880104	     13.90734686	     31.17312806	     -5.94375313	     -2.91850320	    -56.97226601	     -8.68402157	     -4.41230203	     25.11060764	      6.28502320	      3.55165963	      5.98924947
     24.59500000	     -7.23449924	     -2.90979196	     -1.29337298	     -1.44475983	      0.00343272	     -0.27651358	      5.10794993	      8.43365930	      7.40948551	     -8.63966070	      2.61354149	     -0.98359830	     13.85440133	     31.50030028	     -5.80419298	     -3.09494299	    -55.87922372	     -8.27881202	     -4.23023980	     25.10009889	      6.14317301	      3.49147267	      6.32994709
     24.60000000	     -7.16844579	     -2.81358082	     -1.53567503	     -1.44016710	      0.00342923	     -0.27613747	      4.53802508	      8.34404032	      7.70298751	     -8.31245970	      2.69443840	     -1.06070017	     13.71658076	     31.77003320	     -5.66984613	     -3.20620484	    -54.72713550	     -7.90357100	     -4.06669584	     24.96508099	      5.96857439	      3.46081876	      6.69040084
     24.60500000	     -7.23946936	     -2.72582360	     -1.67947058	     -1.43553625	      0.00321439	     -0.27590632	      4.13211433	      8.25155236	      7.81401467	     -7.99927228	      2.81048187	     -1.10737381	     13.66097013	     32.19695016	     -5.48410586	     -3.19939257	    -53.53360050	     -7.63941432	     -3.93731851	     24.89409612	      5.95960942	      3.42589206	      6.92475246
     24.61000000	     -7.12544550	     -2.63316652	     -1.98930917	     -1.43092394	      0.00319215	     -0.27545169	      3.51164919	      8.16813538	      8.23475702	     -7.68946520	      2.89705938	     -1.24390928	     13.40394781	     32.34016601	     -5.40945168	     -3.39386581	    -52.26261485	     -7.26486721	     -3.72491025	     24.57754006	      5.72685824	      3.39798555	      7.32829801
     24.61500000	     -7.11487450	     -2.54623169	     -2.20807033	     -1.42625743	      0.00300736	     -0.27515102	      3.00650276	      8.07759711	      8.53852182	     -7.38138476	      3.02279674	     -1.37348147	     13.13853157	     32.59520677	     -5.28400082	     -3.48535280	    -50.95240353	     -6.96257454	     -3.52381205	     24.21776948	      5.62565289	      3.37411855	      7.60664020
     24.62000000	     -7.13168836	     -2.46773149	     -2.42678628	     -1.42161583	      0.00276589	     -0.27486446	      2.54892540	      7.99377061	      8.79423884	     -7.09913477	      3.14933424	     -1.46139804	     12.90234104	     32.85371855	     -5.16157446	     -3.53667452	    -49.58606191	     -6.71288429	     -3.33546185	     23.86878829	      5.54308728	      3.35722451	      7.87861388
     24.62500000	     -7.08633249	     -2.41230150	     -2.66909598	     -1.41704628	      0.00256524	     -0.27455619	      2.04379187	      7.93695257	      9.09999962	     -6.85901495	      3.27389012	     -1.59529660	     12.53379618	     33.01343683	     -5.07233459	     -3.58464897	    -48.17095716	     -6.44668294	     -3.13978847	     23.31788346	      5.37626228	      3.36368486	      8.24133307
     24.63000000	     -7.09497611	     -2.35304007	     -2.89155670	     -1.41241171	      0.00227509	     -0.27428526	      1.59351450	      7.86994990	      9.36287579	     -6.61422909	      3.42904331	     -1.68113232	     12.17439906	     33.20444035	     -4.97773049	     -3.62109572	    -46.70847012	     -6.20679344	     -2.93410812	     22.74394833	      5.28025471	      3.36543322	      8.53378705
     24.63500000	     -7.16618124	     -2.29486804	     -3.07339199	     -1.40773360	      0.00188908	     -0.27406221	      1.21252454	      7.79844874	      9.54964830	     -6.36452828	      3.57310559	     -1.71271297	     11.98016346	     33.44190384	     -4.87660394	     -3.63331266	    -45.18718118	     -6.06837973	     -2.74637925	     22.34796179	      5.26773778	      3.36234102	      8.72559156
